<svg xmlns="http://www.w3.org/2000/svg" width="34" height="34" fill="none"><g fill="#DCFC36" clip-path="url(#a)"><path d="M29.24 2c0 2.077.058 3.952-.057 5.798-.03.375-.78.865-1.27 1.01-5.336 1.557-10.673 3.086-16.067 4.5-1.356.346-1.673.923-1.673 2.25.087 4.846.029 9.692.029 14.538v1.846H4.087C4.057 31.51 4 31.077 4 30.673V16.135c.029-4.674 2.423-7.76 6.952-9.03 5.394-1.528 10.788-3.028 16.211-4.557.577-.173 1.183-.317 2.077-.548z"/><path d="M13 32V17.144c0-1.038.635-1.586 1.586-1.384a759.247 759.247 0 0 1 13.99 3.346c.26.057.607.52.636.807.057 1.847.028 3.722.028 5.74-3.375-.807-6.548-1.557-9.951-2.364v8.682c-2.193.03-4.154.03-6.289.03z"/></g><defs><clipPath id="a"><path fill="#fff" d="M4 2h25.269v30H4z"/></clipPath></defs></svg>