<svg xmlns="http://www.w3.org/2000/svg" width="135" height="45" fill="none"><g clip-path="url(#a)"><path fill="#666" d="M44.43 26.875c-1.286-3.276-2.543-6.497-3.828-9.785-.156.428-.29.79-.423 1.152-1.352 3.727-2.703 7.448-3.833 11.248-.239.806-.422 1.63-.64 2.442-.072.267 0 .445.218.617.879.712 1.902 1.096 2.987 1.352 1.64.39 3.243.15 4.834-.284 2.626-.717 4.845-2.064 6.475-4.289 1.218-1.663 1.869-3.549 2.097-5.58.3-2.686-.145-5.24-1.552-7.565-2.07-3.42-5.107-5.429-9.084-5.874-6.547-.723-12.45 3.822-13.512 10.336-.506 3.12.078 6.047 1.691 8.761.045.078.1.156.145.24.156.294.078.617-.19.784a.556.556 0 0 1-.767-.145 17.44 17.44 0 0 1-.923-1.385c-3.394-5.902-2.086-13.395 3.104-17.851 8.121-6.97 20.804-3.17 23.747 7.16 1.324 4.655.679 9.089-2.12 13.094-1.985 2.848-4.778 4.606-8.093 5.546-1.602.456-3.232.757-4.912.612-2.32-.2-4.45-.896-6.27-2.43-1.19-1.002-1.574-2.204-1.218-3.722.49-2.109 1.14-4.161 1.842-6.203 1.496-4.35 3.143-8.65 4.873-12.911.289-.718.845-1.09 1.563-1.063.684.028 1.207.468 1.435 1.197L47.6 30.102c.033.116.072.228.111.344.15.462-.033.907-.445 1.102-.423.2-.89.039-1.146-.378-.817-1.336-1.841-2.487-3.115-3.405-1.218-.873-2.553-1.374-4.083-1.263-.428.034-.718-.2-.745-.573-.028-.389.217-.65.656-.706 1.658-.2 3.182.211 4.606 1.035.328.183.623.384.99.617z"/></g><path fill="#666" d="m97.676 28.094 3.934-5.439-3.855-5.32h2.829l2.421 3.438 2.381-3.437h2.828l-3.854 5.32 3.954 5.438h-2.829l-2.48-3.556-2.5 3.556h-2.83zm-5.509.299c-1.09 0-2.046-.236-2.869-.708a5.036 5.036 0 0 1-1.933-1.962c-.458-.837-.687-1.8-.687-2.889 0-1.175.226-2.194.678-3.058.451-.87 1.079-1.544 1.882-2.022.804-.478 1.733-.717 2.79-.717 1.115 0 2.061.262 2.838.787.784.518 1.365 1.252 1.743 2.201.379.95.522 2.069.429 3.357h-2.381v-.876c-.007-1.17-.213-2.022-.618-2.56-.405-.538-1.042-.807-1.912-.807-.983 0-1.713.305-2.191.916-.479.605-.718 1.491-.718 2.66 0 1.089.24 1.932.718 2.53.478.598 1.175.896 2.091.896.591 0 1.1-.13 1.524-.388a2.59 2.59 0 0 0 .996-1.146l2.371.718c-.412.97-1.05 1.723-1.912 2.26a5.232 5.232 0 0 1-2.84.808zm-3.706-5.01v-1.814h7.401v1.813h-7.4zm-8.291 5.01c-1.05 0-1.93-.25-2.64-.748-.71-.497-1.245-1.175-1.604-2.032-.358-.863-.538-1.829-.538-2.898 0-1.083.18-2.052.538-2.909.359-.856.883-1.53 1.574-2.022.697-.498 1.557-.747 2.58-.747 1.016 0 1.896.25 2.64.747.75.492 1.331 1.166 1.743 2.022.412.85.617 1.82.617 2.909 0 1.076-.202 2.042-.607 2.898-.405.857-.976 1.535-1.713 2.032-.738.499-1.6.748-2.59.748zm-5.19 4.482v-15.54h2.122v7.551h.298v7.989h-2.42zm4.821-6.634c.624 0 1.139-.156 1.544-.468.405-.312.704-.734.897-1.265a5.13 5.13 0 0 0 .298-1.793c0-.65-.1-1.242-.299-1.773-.199-.538-.507-.963-.926-1.275-.418-.319-.95-.478-1.594-.478-.61 0-1.109.15-1.494.448-.385.292-.67.704-.856 1.235-.18.525-.27 1.139-.27 1.843 0 .697.09 1.311.27 1.843.186.53.474.946.866 1.245.399.292.92.438 1.564.438zm-19.163 1.853L65.16 13.75h3.517l4.522 14.344h-2.47l-4.104-12.87h.538l-4.054 12.87h-2.47zm2.52-3.108v-2.241h7.53v2.24h-7.53z"/><defs><clipPath id="a"><path fill="#fff" d="M26.25 7.5h29.388v30H26.25z"/></clipPath></defs></svg>