<svg xmlns="http://www.w3.org/2000/svg" width="34" height="34" fill="none"><g clip-path="url(#a)"><path fill="#DCFC36" d="M9.75 16.15H5.37v-5.615h15.673v12.887h-5.819v-4.629c-.194.165-.286.242-.366.319-1.291 1.47-2.572 2.939-3.864 4.397-.331.373-.525.757-.285 1.25.24.483.674.593 1.189.593h8.744c1.475 0 2.458-.976 2.458-2.402V11.105c0-1.557-.971-2.49-2.595-2.49H5.383V2.99h15.284c4.697 0 8.333 3.477 8.344 7.985.012 4.003.012 8.006 0 12.009-.011 4.54-3.646 8.006-8.379 8.006-3.395 0-6.779.022-10.174-.01-2.663-.023-4.664-1.185-5.795-3.5-1.132-2.313-.778-4.518.914-6.503 1.223-1.448 2.48-2.863 3.727-4.3.114-.12.228-.262.445-.526z"/></g><defs><clipPath id="a"><path fill="#fff" d="M4 3h25v28H4z"/></clipPath></defs></svg>