<svg xmlns="http://www.w3.org/2000/svg" width="52" height="52" fill="none"><g clip-path="url(#a)"><rect width="52" height="52" fill="#141414" rx="8"/><path stroke="#DCFC36" stroke-opacity=".2" d="M5.25 55.034V-3m8 58.034V-3m8 58.034V-3m8 58.034V-3m8 58.034V-3m8 58.034V-3m-48.5 8.517h58.035m-58.035 8h58.035m-58.035 8h58.035m-58.035 8h58.035m-58.035 8h58.035m-58.035 8h58.035"/><path fill="url(#b)" d="M0 0h52v52H0z"/><g clip-path="url(#c)"><path fill="#DCFC36" fill-rule="evenodd" d="M26 14c6.627 0 12 5.373 12 12s-5.373 12-12 12-12-5.373-12-12 5.373-12 12-12zm-2.522 8.239c.354 0 .673.03.963.094.291.06.537.164.746.305.206.14.365.328.483.562.113.232.169.523.169.867 0 .373-.084.683-.254.932-.17.248-.42.45-.752.61.454.13.79.36 1.015.687.225.328.333.722.333 1.186 0 .375-.073.696-.215.968a1.9 1.9 0 0 1-.584.669c-.244.173-.525.3-.84.382a3.799 3.799 0 0 1-.965.124h-3.58V22.24h3.481zm4.353.596h2.995v.73l-2.995-.001v-.73zm.666 5.505c.22.215.537.323.95.323.296 0 .554-.075.767-.225.213-.15.342-.309.392-.473H31.9c-.21.645-.523 1.102-.955 1.379-.424.277-.944.417-1.547.417-.423 0-.8-.068-1.14-.202a2.414 2.414 0 0 1-.863-.575 2.634 2.634 0 0 1-.544-.89 3.287 3.287 0 0 1-.192-1.14c0-.401.066-.774.197-1.119a2.593 2.593 0 0 1 1.427-1.491 2.77 2.77 0 0 1 1.117-.219c.452 0 .848.087 1.188.265.338.176.617.413.835.708.219.296.373.636.47 1.015.095.38.128.776.102 1.192h-3.862c0 .42.141.82.363 1.034v.001h.001zm1.686-2.808c-.173-.193-.471-.298-.83-.298-.235 0-.429.04-.583.119-.153.08-.277.178-.373.295a1.05 1.05 0 0 0-.197.378 1.76 1.76 0 0 0-.068.352h2.392c-.035-.376-.164-.652-.34-.847zm-6.917-.31c.289 0 .528-.069.715-.207.188-.136.277-.361.277-.67a.87.87 0 0 0-.092-.426.678.678 0 0 0-.25-.258.992.992 0 0 0-.359-.129 2.236 2.236 0 0 0-.417-.037h-1.52v1.726h1.647zm.09 3.144a2 2 0 0 0 .454-.048c.145-.033.274-.081.382-.156a.786.786 0 0 0 .265-.296c.066-.124.096-.283.096-.478 0-.38-.108-.652-.321-.816-.213-.162-.497-.242-.849-.242H21.62v2.033h1.735v.003z" clip-rule="evenodd"/></g></g><rect width="51" height="51" x=".5" y=".5" stroke="#141414" rx="7.5"/><defs><clipPath id="a"><rect width="52" height="52" fill="#fff" rx="8"/></clipPath><clipPath id="c"><path fill="#fff" d="M14 14h24v24H14z"/></clipPath><radialGradient id="b" cx="0" cy="0" r="1" gradientTransform="matrix(0 26 -26 0 26 26)" gradientUnits="userSpaceOnUse"><stop stop-color="#0A0A0B" stop-opacity="0"/><stop offset=".949" stop-color="#0A0A0B"/></radialGradient></defs></svg>