<svg xmlns="http://www.w3.org/2000/svg" width="28" height="28" fill="none"><path fill="#DCFC36" fill-rule="evenodd" d="M15.564 24.208c0-.483.392-.875.875-.875h1.06c.51 0 .975 0 1.404-.004a.875.875 0 1 1 .015 1.75c-.438.004-.91.004-1.416.004H16.44a.875.875 0 0 1-.875-.875zm0-21c0-.483.392-.875.875-.875h1.064c.506 0 .978 0 1.415.004a.875.875 0 1 1-.015 1.75c-.43-.004-.894-.004-1.403-.004h-1.06a.875.875 0 0 1-.876-.875zm5.869 20.936a.875.875 0 0 1 .576-1.095c.375-.116.635-.273.847-.485.212-.212.368-.472.485-.847a.875.875 0 0 1 1.671.52c-.187.6-.476 1.122-.919 1.565-.442.442-.963.731-1.565.918a.875.875 0 0 1-1.095-.576zm0-20.872a.875.875 0 0 1 1.095-.576c.602.187 1.123.476 1.566.918.442.443.731.964.918 1.566a.875.875 0 1 1-1.671.52c-.117-.376-.273-.636-.485-.848-.212-.212-.472-.369-.847-.485a.875.875 0 0 1-.576-1.095zm3.056 16.221a.875.875 0 0 1-.868-.882c.004-.43.004-.894.004-1.403v-1.59a.875.875 0 1 1 1.75 0v1.593c0 .506 0 .978-.004 1.415a.875.875 0 0 1-.882.867zm0-11.57a.875.875 0 0 1 .882.867c.004.437.004.91.004 1.415V11.8a.875.875 0 1 1-1.75 0v-1.591c0-.509 0-.974-.004-1.403a.875.875 0 0 1 .868-.882z" clip-rule="evenodd"/><path fill="#DCFC36" d="M3.5 12.541v2.334c0 4.4 0 6.6 1.367 7.966 1.275 1.275 4.289 1.361 8.258 1.367a.875.875 0 1 0 1.75 0v-21a.875.875 0 0 0-1.75 0c-3.97.006-6.983.092-8.258 1.367C3.5 5.942 3.5 8.142 3.5 12.54z"/></svg>