<svg xmlns="http://www.w3.org/2000/svg" width="34" height="34" fill="none"><g fill="#DCFC36" clip-path="url(#a)"><path d="M23.151 4.106V9.86c-.374.021-.749.043-1.103.043h-10.2c-.52 0-1.04-.107-1.04.767.02 4.156 0 8.311 0 12.467v1.023h3.455v5.86h-9.2C5.042 29.638 5 29.255 5 28.87c0-5.967-.02-11.934.042-17.902 0-.596.312-1.3.708-1.747 1.457-1.62 2.997-3.154 4.537-4.689.271-.277.708-.511 1.062-.511 3.788-.043 7.577-.022 11.365-.022.125 0 .25.064.437.107z"/><path d="M14.388 24.14c1.02-1.983 1.915-3.815 2.893-5.584.125-.235.666-.32 1-.32 1.581-.043 3.184-.021 4.953-.021v-8.184H29c0 2.664.02 5.307-.02 7.97 0 .235-.25.49-.417.683a522.192 522.192 0 0 1-4.788 4.88c-.229.235-.562.533-.832.554-2.79.043-5.558.021-8.555.021z"/></g><defs><clipPath id="a"><path fill="#fff" d="M5 4h24v26H5z"/></clipPath></defs></svg>