<svg xmlns="http://www.w3.org/2000/svg" width="28" height="28" fill="none"><path fill="#DCFC36" fill-rule="evenodd" d="M2.333 1.458a.875.875 0 1 0 0 1.75h2.334v9.042c0 3.575 0 5.362 1.171 6.473 1.172 1.11 3.057 1.11 6.829 1.11h.458v4.126l-1.85.925a.875.875 0 1 0 .783 1.566L14 25.477l1.942.971a.875.875 0 0 0 .783-1.565l-1.85-.925v-4.125h.458c3.772 0 5.657 0 6.829-1.111 1.171-1.11 1.171-2.898 1.171-6.473V3.21h2.334a.875.875 0 0 0 0-1.75H2.333zm15.786 7.84a.875.875 0 0 1 0 1.238l-1.537 1.536c-.17.17-.352.353-.527.486a1.445 1.445 0 0 1-.888.325 1.44 1.44 0 0 1-.888-.325c-.175-.133-.358-.316-.528-.486l-.711-.711c-.082-.082-.148-.149-.207-.205-.058.056-.124.123-.206.204l-1.507 1.51a.875.875 0 1 1-1.24-1.24l1.537-1.536c.17-.17.352-.353.527-.486.206-.157.5-.326.888-.326.39 0 .683.169.888.326.175.133.358.316.527.486l.712.711c.082.082.148.148.207.205l.206-.204 1.508-1.509a.875.875 0 0 1 1.238 0z" clip-rule="evenodd"/></svg>