<svg xmlns="http://www.w3.org/2000/svg" width="30" height="30" fill="none"><path stroke="#DCFC36" stroke-linecap="round" stroke-linejoin="round" stroke-width="2" d="M5.074 6.638c.85 9.39 8.898 17.438 18.288 18.288.95.086 1.773-.599 1.96-1.534l.628-3.144a2 2 0 0 0-1.066-2.181l-2.141-1.07a2 2 0 0 0-2.494.588l-.274.365c-.378.504-.982.814-1.57.591-2.39-.906-6.04-4.555-6.946-6.945-.223-.59.087-1.193.591-1.571l.365-.274a2 2 0 0 0 .589-2.494l-1.07-2.14A2 2 0 0 0 9.751 4.05l-3.144.628c-.935.187-1.62 1.01-1.534 1.96z"/></svg>