<svg xmlns="http://www.w3.org/2000/svg" width="25" height="24" fill="none"><path fill="#DCFC36" d="M15.918 10.689c-.986-1.18-1.48-1.77-2.047-1.68-.567.091-.832.803-1.363 2.227l-.137.368c-.15.405-.226.607-.373.756-.146.149-.348.228-.75.386l-.367.143c-1.418.555-2.126.833-2.207 1.4-.08.567.52 1.049 1.72 2.011l.312.25c.34.273.511.41.61.597.099.187.115.404.146.837l.029.394c.11 1.523.166 2.285.683 2.545.517.26 1.154-.155 2.427-.983l.329-.215c.361-.235.542-.353.75-.387.208-.033.419.022.841.132l.384.1c1.486.386 2.229.58 2.63.173.4-.407.193-1.144-.222-2.62l-.107-.38c-.118-.42-.177-.63-.147-.837.03-.208.144-.39.374-.756l.209-.332c.807-1.285 1.211-1.927.942-2.438-.27-.511-1.035-.553-2.564-.635l-.395-.022c-.435-.023-.652-.035-.841-.13-.19-.095-.33-.263-.61-.599l-.256-.305z"/><path fill="#DCFC36" d="m15.545 5.167.183.522c.2.573.301.86.497 1.07.195.212.464.324 1 .547l.49.204c1.89.786 2.834 1.18 2.942 1.983.045.334-.068.648-.33.998a4.17 4.17 0 0 0-.254-.06c-.526-.107-1.195-.143-1.877-.18l-.49-.026-.23-.013-.151-.18-.316-.377c-.44-.528-.871-1.043-1.272-1.401-.427-.382-1.142-.88-2.103-.726-.972.156-1.49.863-1.77 1.367-.259.468-.492 1.094-.728 1.727l-.17.458-.073.193a23.41 23.41 0 0 1-.193.076l-.455.178c-.63.247-1.253.49-1.717.757-.499.287-1.2.817-1.339 1.793-.138.967.377 1.673.767 2.092.29.311.68.64 1.098.978-1.569.425-2.403.584-2.878.072-.533-.576-.257-1.62.295-3.71l.143-.54c.157-.595.236-.891.196-1.186-.04-.294-.192-.553-.498-1.07l-.279-.47c-1.076-1.82-1.615-2.73-1.255-3.455.36-.724 1.379-.783 3.417-.9l.528-.03c.58-.034.869-.05 1.121-.185.253-.135.44-.372.814-.848l.34-.432c1.316-1.673 1.973-2.509 2.73-2.38.755.129 1.11 1.137 1.817 3.154z"/></svg>