<svg xmlns="http://www.w3.org/2000/svg" width="135" height="45" fill="none"><g fill="#666" clip-path="url(#a)"><path d="M15.925 35.003c.158.02.316.038.475.052 2.45-1.141 4.519-3.02 5.963-5.461 1.4-2.366 2.09-5.05 2.029-7.771l-2.673-2.803c1.085 5.916-1.045 12.18-5.795 15.983h.001z"/><path d="m14.971 34.873.073.015c5.094-3.807 7.278-10.452 5.837-16.564l-3.805-3.99c3.057 6.518 2.44 14.56-2.103 20.54h-.002zm12.909-9.759c-.644 3.046-2.192 5.786-4.478 7.872a14.183 14.183 0 0 1-2.128 1.603c3.736-1.141 6.76-4.08 8.151-7.854l-1.545-1.621z"/><path d="m27.275 24.663-2.197-2.304a15.107 15.107 0 0 1-2.108 7.515c-1.328 2.244-3.164 4.029-5.334 5.232h.01c.5 0 .992-.032 1.477-.093 4.113-1.762 7.257-5.6 8.152-10.35zM15.296 12.651l-2.627-2.755c-4.656 1.887-7.982 6.64-7.982 12.17 0 6.096 4.043 11.248 9.454 12.658 5.043-6.418 5.313-15.402 1.155-22.073zM33.333 24.24c0-7.172-5.594-13.04-12.432-13.04-1.567 0-3.068.309-4.452.869l16.054 16.837c.535-1.451.83-3.025.83-4.668v.001z"/></g><path fill="#666" d="M126.856 31.875c-1.23 0-2.31-.266-3.24-.799a5.69 5.69 0 0 1-2.183-2.216c-.517-.945-.776-2.032-.776-3.262 0-1.328.255-2.48.765-3.454.51-.983 1.219-1.744 2.126-2.284.908-.54 1.958-.81 3.15-.81 1.26 0 2.329.296 3.207.889.885.585 1.541 1.413 1.968 2.486.428 1.072.589 2.336.484 3.791h-2.689v-.99c-.007-1.32-.24-2.284-.697-2.891-.458-.608-1.178-.911-2.16-.911-1.11 0-1.935.345-2.475 1.035-.54.682-.81 1.683-.81 3.003 0 1.23.27 2.183.81 2.858.54.675 1.327 1.013 2.362 1.013.668 0 1.242-.147 1.722-.44.487-.3.862-.73 1.125-1.293l2.677.81c-.465 1.095-1.185 1.946-2.16 2.554a5.907 5.907 0 0 1-3.206.911zm-4.185-5.659V24.17h8.359v2.047h-8.359zm-10.354 5.659c-1.118 0-2.093-.281-2.925-.844-.833-.562-1.478-1.327-1.935-2.295-.458-.967-.687-2.059-.687-3.274 0-1.23.229-2.325.687-3.285.465-.967 1.121-1.728 1.968-2.283.848-.563 1.845-.844 2.993-.844 1.155 0 2.122.281 2.902.844.788.555 1.384 1.316 1.789 2.284.405.967.608 2.062.608 3.284 0 1.208-.203 2.3-.608 3.274-.405.968-1.009 1.733-1.811 2.295-.803.563-1.796.844-2.981.844zm.416-2.43c.727 0 1.312-.165 1.755-.495.45-.337.776-.806.979-1.406.21-.6.315-1.294.315-2.082 0-.794-.105-1.488-.315-2.08-.203-.6-.522-1.066-.957-1.396-.435-.337-.997-.506-1.687-.506-.728 0-1.328.18-1.8.54-.473.352-.821.832-1.046 1.44-.225.6-.338 1.267-.338 2.002 0 .743.109 1.418.326 2.026.225.6.567 1.076 1.024 1.428.458.353 1.039.529 1.744.529zm3.049 2.093V23.01h-.338v-7.673h2.734v16.2h-2.396zm-17.903.337c-.878 0-1.62-.165-2.228-.495-.607-.337-1.068-.784-1.383-1.339a3.72 3.72 0 0 1-.462-1.834c0-.585.098-1.11.293-1.575.195-.472.495-.877.9-1.215.405-.345.93-.626 1.575-.843.487-.158 1.058-.3 1.71-.428a39.87 39.87 0 0 1 2.138-.349 342.61 342.61 0 0 0 2.418-.36l-.967.552c.007-.84-.18-1.459-.563-1.857-.382-.397-1.027-.596-1.935-.596-.547 0-1.076.128-1.586.383s-.866.694-1.069 1.316l-2.475-.776c.3-1.028.87-1.853 1.71-2.475.848-.623 1.988-.934 3.42-.934 1.08 0 2.029.176 2.847.529a3.53 3.53 0 0 1 1.833 1.732c.218.428.349.866.394 1.317.045.442.068.926.068 1.45v7.46h-2.374v-2.633l.394.428c-.548.877-1.189 1.522-1.924 1.934-.728.405-1.639.608-2.734.608zm.54-2.16c.615 0 1.14-.109 1.575-.326.435-.218.78-.484 1.035-.799.263-.315.439-.611.529-.889.142-.345.221-.739.236-1.181.023-.45.034-.814.034-1.091l.832.247c-.817.128-1.518.24-2.103.338a33.94 33.94 0 0 0-1.508.281c-.42.082-.791.176-1.114.281a3.447 3.447 0 0 0-.799.394 1.75 1.75 0 0 0-.506.518 1.35 1.35 0 0 0-.168.686c0 .3.075.566.224.799.15.225.368.405.653.54.293.134.653.202 1.08.202zm-11.405 2.16c-1.253 0-2.322-.277-3.206-.832a5.543 5.543 0 0 1-2.037-2.296c-.465-.967-.701-2.062-.709-3.285.008-1.244.252-2.347.732-3.307a5.518 5.518 0 0 1 2.07-2.273c.892-.555 1.953-.832 3.183-.832 1.38 0 2.547.349 3.5 1.046.96.69 1.585 1.635 1.878 2.835l-2.7.732c-.21-.653-.559-1.16-1.046-1.52a2.694 2.694 0 0 0-1.665-.55c-.705 0-1.286.168-1.744.506-.457.33-.795.787-1.013 1.372-.217.585-.326 1.249-.326 1.991 0 1.155.259 2.09.776 2.802.518.712 1.287 1.069 2.307 1.069.72 0 1.286-.165 1.699-.495.42-.33.735-.807.945-1.43l2.767.62c-.375 1.237-1.031 2.19-1.969 2.857-.937.66-2.085.99-3.442.99zm-12.758 0c-1.5 0-2.719-.337-3.656-1.012-.938-.675-1.508-1.624-1.71-2.847l2.767-.427c.142.6.458 1.072.945 1.417.487.345 1.102.518 1.845.518.653 0 1.155-.128 1.507-.383.36-.262.54-.618.54-1.068 0-.278-.067-.5-.202-.664-.127-.173-.413-.338-.855-.495-.442-.158-1.121-.357-2.036-.597-1.02-.27-1.83-.558-2.43-.866-.6-.315-1.032-.686-1.294-1.114-.263-.427-.394-.945-.394-1.552 0-.758.199-1.418.596-1.98.398-.563.953-.994 1.665-1.294.713-.307 1.553-.461 2.52-.461.946 0 1.782.146 2.51.439.734.292 1.327.709 1.777 1.248.45.54.727 1.174.832 1.902l-2.767.495a1.743 1.743 0 0 0-.709-1.227c-.397-.3-.93-.468-1.597-.506-.638-.037-1.152.06-1.542.293-.39.225-.585.544-.585.956 0 .233.079.431.236.596.158.165.473.33.946.495.48.165 1.192.368 2.137.608.967.247 1.74.532 2.317.855.585.315 1.005.694 1.26 1.136.263.442.394.979.394 1.609 0 1.222-.446 2.182-1.338 2.88-.886.697-2.112 1.046-3.68 1.046zm-14.258 0c-.877 0-1.62-.165-2.227-.495-.608-.337-1.07-.784-1.384-1.339a3.72 3.72 0 0 1-.462-1.834c0-.585.098-1.11.293-1.575.195-.472.495-.877.9-1.215.405-.345.93-.626 1.575-.843.488-.158 1.058-.3 1.71-.428a39.93 39.93 0 0 1 2.138-.349 342.61 342.61 0 0 0 2.418-.36l-.967.552c.007-.84-.18-1.459-.563-1.857-.382-.397-1.027-.596-1.935-.596-.547 0-1.076.128-1.586.383s-.866.694-1.069 1.316l-2.475-.776c.3-1.028.87-1.853 1.71-2.475.848-.623 1.988-.934 3.42-.934 1.08 0 2.029.176 2.847.529a3.53 3.53 0 0 1 1.833 1.732c.218.428.349.866.394 1.317.045.442.067.926.067 1.45v7.46h-2.373v-2.633l.394.428c-.548.877-1.19 1.522-1.924 1.934-.728.405-1.639.608-2.734.608zm.54-2.16c.615 0 1.14-.109 1.575-.326.435-.218.78-.484 1.035-.799.262-.315.439-.611.529-.889.142-.345.221-.739.236-1.181.023-.45.034-.814.034-1.091l.832.247c-.817.128-1.518.24-2.103.338a34.04 34.04 0 0 0-1.508.281c-.42.082-.791.176-1.114.281a3.447 3.447 0 0 0-.799.394 1.75 1.75 0 0 0-.506.518 1.35 1.35 0 0 0-.169.686c0 .3.076.566.226.799.15.225.367.405.652.54.293.134.653.202 1.08.202zm-13.698 2.16c-1.62 0-3.007-.352-4.162-1.058-1.155-.712-2.044-1.702-2.666-2.97-.615-1.267-.923-2.737-.923-4.41 0-1.672.308-3.142.923-4.41.622-1.267 1.511-2.253 2.666-2.958C43.833 15.356 45.221 15 46.841 15c1.867 0 3.423.469 4.668 1.406 1.245.93 2.12 2.187 2.622 3.769l-2.734.754c-.315-1.058-.851-1.883-1.609-2.475-.757-.6-1.74-.9-2.947-.9-1.088 0-1.995.244-2.723.731-.72.488-1.264 1.174-1.631 2.059-.36.877-.544 1.909-.551 3.093 0 1.185.18 2.22.54 3.105.367.878.915 1.56 1.642 2.048.728.488 1.635.731 2.723.731 1.207 0 2.19-.3 2.947-.9.758-.6 1.294-1.425 1.609-2.475l2.734.754c-.503 1.582-1.377 2.843-2.622 3.78-1.245.93-2.8 1.395-4.668 1.395z"/><defs><clipPath id="a"><path fill="#fff" d="M4.688 9.896h28.646v25.208H4.688z"/></clipPath></defs></svg>