<svg xmlns="http://www.w3.org/2000/svg" width="28" height="28" fill="none"><path fill="#DCFC36" d="M20.175 2.675c-.342.342-.342.892-.342 1.992v15.166c0 1.1 0 1.65.342 1.992.342.342.892.342 1.992.342s1.65 0 1.991-.342c.342-.342.342-.892.342-1.991V4.667c0-1.1 0-1.65-.342-1.992-.341-.341-.891-.341-1.991-.341s-1.65 0-1.992.341zm-8.508 5.492c0-1.1 0-1.65.341-1.992.342-.341.892-.341 1.992-.341s1.65 0 1.992.341c.341.342.341.892.341 1.992v11.667c0 1.1 0 1.65-.341 1.991-.342.342-.892.342-1.992.342s-1.65 0-1.992-.342c-.341-.342-.341-.892-.341-1.991V8.167zm-7.825 2.675c-.342.342-.342.892-.342 1.992v7c0 1.1 0 1.65.342 1.991.341.342.891.342 1.991.342s1.65 0 1.992-.342c.342-.342.342-.892.342-1.991v-7c0-1.1 0-1.65-.342-1.992-.342-.342-.892-.342-1.992-.342s-1.65 0-1.991.342zM3.5 24.792a.875.875 0 0 0 0 1.75h21a.875.875 0 1 0 0-1.75h-21z"/></svg>