<svg xmlns="http://www.w3.org/2000/svg" width="135" height="45" fill="none"><g clip-path="url(#a)"><path fill="#666" d="M42.868 7.5h-17.32l-8.66 15 8.66 15h17.32l8.66-15-8.66-15zm-.764 28.447-.066.113h-15.66L18.55 22.5l7.83-13.562h.13l1.774 3.074 1.89-3.275h.25l-2.015 3.49.95 1.649 2.967-5.139h.332l-3.132 5.426.89 1.539 4.02-6.966h.499l-4.27 7.397.806 1.395 5.076-8.792h.665l-5.41 9.368.734 1.27 6.142-10.637h.83L32.95 20.094l.64 1.108 7.196-12.465h.997l-7.695 13.327.615 1.068 7.712-13.354.664 1.15-7.71 13.354 6.736 11.665h-.001z"/></g><path fill="#666" d="M116.938 30.314c-.743.14-1.473.198-2.188.178-.708-.014-1.344-.143-1.906-.386a2.643 2.643 0 0 1-1.282-1.177 3.355 3.355 0 0 1-.406-1.49 62.903 62.903 0 0 1-.021-1.719v-9.782h2.5v9.636c0 .452.004.848.011 1.188.014.34.087.618.218.833.251.417.65.65 1.199.698.548.05 1.173.021 1.875-.083v2.104zm-7.845-9.282v-1.969h7.845v1.97h-7.845zm-5.678 9.595c-1.389 0-2.518-.313-3.386-.938-.868-.625-1.396-1.503-1.583-2.635l2.562-.396c.132.555.424.993.876 1.313.451.319 1.02.479 1.708.479.604 0 1.07-.118 1.396-.354.333-.244.5-.573.5-.99 0-.257-.062-.462-.187-.615-.118-.16-.382-.312-.792-.458-.41-.146-1.038-.33-1.886-.552-.944-.25-1.694-.518-2.25-.803-.556-.291-.955-.635-1.198-1.031-.243-.396-.365-.875-.365-1.438 0-.701.184-1.312.552-1.833.369-.521.882-.92 1.542-1.198.66-.285 1.438-.428 2.334-.428.875 0 1.649.136 2.323.407.681.27 1.229.656 1.646 1.156.417.5.674 1.087.771 1.76l-2.563.46a1.611 1.611 0 0 0-.656-1.136c-.368-.278-.861-.434-1.479-.47-.591-.034-1.067.056-1.428.272-.361.208-.541.503-.541.885 0 .216.072.4.218.552.146.153.438.306.875.459.445.153 1.105.34 1.98.562.896.23 1.611.494 2.146.792.542.292.931.643 1.167 1.052.243.41.364.907.364 1.49 0 1.132-.413 2.021-1.239 2.667-.82.646-1.955.97-3.407.97zm-11.425 0c-1.139 0-2.139-.247-3-.74a5.267 5.267 0 0 1-2.021-2.053c-.48-.875-.719-1.882-.719-3.02 0-1.23.236-2.296.708-3.199.473-.91 1.129-1.615 1.97-2.115.84-.5 1.812-.75 2.916-.75 1.167 0 2.157.274 2.97.823.82.542 1.427 1.31 1.823 2.302.396.994.545 2.164.448 3.511h-2.49v-.916c-.007-1.223-.222-2.115-.646-2.678-.424-.563-1.09-.844-2-.844-1.028 0-1.792.32-2.292.959-.5.632-.75 1.559-.75 2.781 0 1.14.25 2.021.75 2.646.5.626 1.229.938 2.188.938.618 0 1.149-.135 1.594-.406a2.711 2.711 0 0 0 1.041-1.198l2.48.75c-.43 1.014-1.098 1.802-2 2.365a5.472 5.472 0 0 1-2.97.844zm-3.875-5.24V23.49h7.74v1.896h-7.74zm-10.402 5.251c-.834 0-1.521-.14-2.063-.417-.542-.278-.972-.632-1.292-1.063a4.625 4.625 0 0 1-.708-1.375 7.358 7.358 0 0 1-.302-1.375 11.698 11.698 0 0 1-.063-1.063v-6.282h2.542v5.418c0 .347.025.74.073 1.177.049.43.16.847.334 1.25.18.396.444.722.791.98.354.256.83.385 1.427.385.32 0 .636-.052.949-.157a2.14 2.14 0 0 0 .843-.53c.257-.258.462-.609.615-1.053.153-.445.23-1.007.23-1.688l1.49.636c0 .958-.188 1.826-.563 2.604a4.43 4.43 0 0 1-1.636 1.865c-.722.458-1.611.688-2.667.688zm3.677-.323v-3.49h-.302v-7.762h2.521v11.252H81.39zm-11.762.312-4.282-4.26 1.573-1.574 4.261 4.261-1.552 1.573zm-5.397 0c-1.5 0-2.785-.326-3.854-.98-1.07-.659-1.893-1.576-2.47-2.75-.569-1.173-.854-2.535-.854-4.083 0-1.55.285-2.91.855-4.084.576-1.174 1.399-2.087 2.469-2.74 1.07-.66 2.354-.99 3.854-.99s2.785.33 3.855.99c1.076.653 1.9 1.566 2.469 2.74.576 1.173.865 2.535.865 4.084 0 1.548-.288 2.91-.865 4.083-.57 1.174-1.393 2.091-2.47 2.75-1.069.654-2.353.98-3.854.98zm0-2.365c1.007.007 1.844-.215 2.511-.667.674-.451 1.177-1.086 1.51-1.906.341-.82.511-1.778.511-2.875 0-1.098-.17-2.05-.51-2.855-.334-.813-.837-1.445-1.511-1.896-.667-.451-1.504-.684-2.51-.698-1.008-.007-1.845.215-2.511.667-.667.451-1.17 1.087-1.511 1.906-.334.82-.5 1.778-.5 2.876 0 1.097.166 2.052.5 2.864.333.806.833 1.435 1.5 1.886.674.452 1.514.684 2.521.698z"/><defs><clipPath id="a"><path fill="#fff" d="M16.888 7.5h34.64v30h-34.64z"/></clipPath></defs></svg>