<svg xmlns="http://www.w3.org/2000/svg" width="34" height="34" fill="none"><g fill="#DCFC36" clip-path="url(#a)"><path d="M6.036 20.035c2.278 0 4.378-.194 6.426.053 2.225.264 3.337-.583 4.22-2.577 1.289-2.947 2.93-5.753 4.396-8.63.265-.546.565-.758 1.2-.758 2.843.035 5.703.018 8.722.018-.16.37-.265.653-.407.917-2.824 5.347-5.667 10.695-8.474 16.06-.353.67-.724.9-1.483.9A766.775 766.775 0 0 0 9.602 26c-.547 0-.847-.16-1.077-.671-.776-1.73-1.588-3.406-2.489-5.294z"/><path d="M3 8.123h6.426c.265 0 .53.035.795 0 2.507-.494 4.166.565 5.508 2.647.67 1.024.918 1.694.212 2.753-.706 1.077-1.183 2.294-1.819 3.424-.14.264-.565.529-.847.529a95.585 95.585 0 0 1-5.032 0c-.247 0-.6-.159-.706-.353-1.5-2.93-2.966-5.876-4.537-9z"/></g><defs><clipPath id="a"><path fill="#fff" d="M3 8h28v18H3z"/></clipPath></defs></svg>