<svg xmlns="http://www.w3.org/2000/svg" width="135" height="45" fill="none"><g clip-path="url(#a)"><path fill="gray" d="M27.134 13.857c2.283.983 4.67 1.751 6.999 2.335 2.93.728 6.923 1.416 10.327.81.56-.215 1.127-.44 1.688-.66a15.065 15.065 0 0 0-4.19-5.461c-3.098 1.607-6.623 2.063-10.108 2.456-1.572.18-3.15.41-4.716.52z"/><path fill="#666" d="M42.524 30.802c-3.046.855-5.762 2.404-8.906 2.93-3.248.543-6.611.965-9.946.913a14.953 14.953 0 0 0 8.796 2.855c5.589 0 10.46-3.057 13.038-7.588-1 .323-2 .613-2.988.89h.006z"/><path fill="#999" d="M31.948 20.896a66.094 66.094 0 0 0 5.514-1.456 40.25 40.25 0 0 1-2.37-.405c-4.924-.965-10.24-2.907-14.46-5.744A14.917 14.917 0 0 0 17.5 21.6c4.49 1.306 10.258.203 14.448-.699v-.006z"/><path fill="gray" d="M33.705 31.114c2.104-.405 4.01-1.34 5.993-2.092a52.193 52.193 0 0 1-5.912-.364c-5.473-.67-10.98-2.277-16.194-4.271a14.916 14.916 0 0 0 3.18 7.501c4.287.526 8.772.03 12.933-.774z"/><path fill="#666" d="M47.014 26.19a14.91 14.91 0 0 0 .457-3.693c0-1.277-.144-2.38-.416-3.508a13.46 13.46 0 0 1-1.942.503c-4.912 1.884-9.894 3.52-15.118 4.398-1.295.22-2.676.428-4.086.584 2.167.6 4.346 1.092 6.507 1.421 3.161.48 6.375.7 9.565.567 1.606-.064 3.375 0 5.033-.272zM31.85 10.76c2.595-.295 5.172-.63 7.553-1.56a14.9 14.9 0 0 0-6.935-1.7c-3.733 0-7.143 1.37-9.772 3.624 2.93.728 6.235-.03 9.148-.365h.006z"/></g><path fill="#666" d="M115.428 30.265v-5.419c0-.354-.024-.746-.072-1.177a4.097 4.097 0 0 0-.344-1.24 2.356 2.356 0 0 0-.792-.99c-.348-.257-.82-.385-1.417-.385-.32 0-.636.052-.948.156a2.176 2.176 0 0 0-.855.542c-.25.25-.451.597-.604 1.042-.153.437-.229 1-.229 1.688l-1.49-.636c0-.959.184-1.827.552-2.605a4.434 4.434 0 0 1 1.646-1.854c.723-.466 1.612-.698 2.668-.698.833 0 1.521.138 2.063.416.541.278.972.632 1.292 1.063.319.43.555.89.708 1.375.153.487.25.949.292 1.386.048.43.073.782.073 1.053v6.283h-2.543zm-7.804 0V19.012h2.24v3.49h.303v7.763h-2.543zm-7.891.312c-1.125 0-2.108-.253-2.948-.76a5.224 5.224 0 0 1-1.96-2.095c-.458-.896-.687-1.924-.687-3.084 0-1.18.236-2.216.709-3.105a5.224 5.224 0 0 1 1.969-2.084c.84-.5 1.813-.75 2.917-.75 1.133 0 2.119.253 2.96.76a5.207 5.207 0 0 1 1.958 2.105c.466.89.699 1.914.699 3.074 0 1.167-.237 2.199-.709 3.095a5.218 5.218 0 0 1-1.959 2.094c-.84.5-1.823.75-2.949.75zm0-2.355c1.001 0 1.744-.333 2.23-1s.73-1.528.73-2.584c0-1.09-.247-1.959-.74-2.605-.493-.653-1.233-.98-2.22-.98-.673 0-1.23.154-1.667.46-.43.298-.75.718-.958 1.26-.209.535-.313 1.157-.313 1.865 0 1.09.247 1.962.74 2.615.5.646 1.233.97 2.198.97zM89.131 17.303V15h2.511v2.303h-2.51zm0 12.962V19.012h2.511v11.253h-2.51zm-7.138.312c-1.389 0-2.517-.312-3.386-.938-.868-.625-1.396-1.503-1.584-2.636l2.564-.396c.132.556.423.994.875 1.313.451.32 1.021.48 1.709.48.604 0 1.07-.119 1.396-.355.333-.243.5-.573.5-.99 0-.257-.063-.462-.188-.614-.118-.16-.382-.313-.791-.459-.41-.146-1.039-.33-1.886-.552-.945-.25-1.695-.518-2.251-.802-.556-.292-.955-.636-1.198-1.032s-.365-.875-.365-1.438c0-.701.184-1.313.552-1.834.368-.52.883-.92 1.542-1.198.66-.285 1.438-.427 2.334-.427.876 0 1.65.135 2.324.406.68.271 1.23.657 1.646 1.157.417.5.674 1.087.771 1.76l-2.563.46a1.614 1.614 0 0 0-.656-1.136c-.368-.278-.862-.435-1.48-.47-.59-.034-1.066.056-1.427.271-.362.209-.542.504-.542.886 0 .215.073.4.219.552.145.153.437.306.875.459.444.153 1.104.34 1.98.563.896.229 1.611.493 2.146.791.542.292.93.643 1.167 1.053.243.41.365.906.365 1.49 0 1.132-.414 2.021-1.24 2.667-.82.646-1.956.97-3.407.97zm-13.169.01c-.834 0-1.522-.138-2.063-.416-.542-.278-.973-.632-1.292-1.063-.32-.43-.556-.89-.709-1.375a7.362 7.362 0 0 1-.302-1.376 11.704 11.704 0 0 1-.063-1.063v-6.282h2.543v5.418c0 .347.024.74.073 1.177.048.43.16.847.333 1.25.18.396.445.723.792.98.354.257.83.385 1.428.385.32 0 .635-.052.948-.156.312-.104.594-.281.844-.531.257-.257.462-.608.614-1.053.153-.444.23-1.007.23-1.688l1.49.636c0 .958-.188 1.827-.563 2.605a4.43 4.43 0 0 1-1.636 1.865c-.722.458-1.611.688-2.667.688zm3.678-.322v-3.491H72.2v-7.762h2.521v11.253h-2.22zm-18.806 0V15.26h9.034v2.512h-6.523v3.74h5.272v2.5h-5.272v6.253h-2.511z"/><defs><clipPath id="a"><path fill="#fff" d="M17.5 7.5h29.971v30H17.5z"/></clipPath></defs></svg>