<svg xmlns="http://www.w3.org/2000/svg" width="135" height="45" fill="none"><g fill="#666" clip-path="url(#a)"><path d="M59.635 37.5 47.767 16.305l-7.43 13.27 4.438 7.925h14.86zm-16.422 0-3.657-6.531L35.9 37.5h7.313zm-4.032-30L22.5 37.5h11.673l10.845-19.575L39.181 7.5z"/></g><path fill="#666" d="M106.226 30.363c-.816 0-1.505-.154-2.07-.46-.564-.314-.993-.728-1.285-1.244a3.452 3.452 0 0 1-.429-1.703c0-.544.091-1.032.272-1.463.181-.44.46-.816.836-1.13.376-.32.864-.58 1.463-.783a13.89 13.89 0 0 1 1.589-.397 37.157 37.157 0 0 1 1.985-.324 365.53 365.53 0 0 0 2.247-.335l-.898.513c.006-.78-.168-1.355-.523-1.725-.355-.369-.955-.554-1.798-.554-.508 0-.999.119-1.473.356-.474.236-.805.644-.993 1.222l-2.299-.72a4.275 4.275 0 0 1 1.588-2.3c.788-.578 1.847-.867 3.177-.867 1.004 0 1.885.163 2.644.49a3.281 3.281 0 0 1 1.704 1.61c.202.397.324.805.366 1.223.042.411.062.86.062 1.348v6.929h-2.205v-2.445l.366.397c-.508.815-1.104 1.414-1.787 1.797-.676.376-1.522.565-2.539.565zm.501-2.007c.571 0 1.059-.101 1.463-.303.404-.202.725-.45.962-.742.244-.293.407-.568.491-.826.132-.32.205-.686.219-1.097.021-.418.032-.756.032-1.014l.773.23c-.759.119-1.411.223-1.954.314-.544.09-1.01.177-1.401.261-.39.077-.735.164-1.034.261-.293.105-.54.227-.742.366-.202.14-.359.3-.47.48a1.249 1.249 0 0 0-.157.638c0 .279.069.526.209.742.139.21.341.377.606.502.272.125.606.188 1.003.188zM95.2 30.049l-4.096-11.287h2.519l2.842 8.183 2.832-8.183h2.529L97.73 30.05H95.2zm-10.578.314c-1.129 0-2.115-.255-2.957-.763a5.24 5.24 0 0 1-1.965-2.101c-.46-.899-.69-1.93-.69-3.093 0-1.185.237-2.223.71-3.115a5.239 5.239 0 0 1 1.976-2.09c.843-.502 1.818-.752 2.926-.752 1.136 0 2.125.254 2.968.763a5.223 5.223 0 0 1 1.965 2.11c.466.893.7 1.92.7 3.084 0 1.17-.237 2.205-.71 3.104a5.24 5.24 0 0 1-1.965 2.1c-.843.502-1.83.753-2.958.753zm0-2.362c1.003 0 1.749-.335 2.237-1.004.487-.669.731-1.532.731-2.591 0-1.094-.247-1.965-.742-2.613-.495-.655-1.237-.982-2.226-.982-.676 0-1.233.153-1.672.46-.432.299-.752.72-.962 1.264-.209.536-.313 1.16-.313 1.87 0 1.095.247 1.969.742 2.624.502.648 1.237.972 2.205.972zm-19.987 2.048V15h2.55l6.98 10.607V15h2.55v15.049h-2.55l-6.98-10.607v10.607h-2.55z"/><defs><clipPath id="a"><path fill="#fff" d="M22.5 7.5h37.135v30H22.5z"/></clipPath></defs></svg>