<svg xmlns="http://www.w3.org/2000/svg" width="34" height="34" fill="none"><g clip-path="url(#a)"><path fill="#DCFC36" d="M33 26.96c-3.227 0-6.273.02-9.338-.038-.323 0-.767-.37-.948-.683-2.36-4.098-4.68-8.234-7.02-12.37-.2-.371-.423-.723-.725-1.25-.847 1.503-1.614 2.85-2.38 4.196-.04.058-.04.136-.08.175-1.736 1.932-1.372 3.805.08 5.737.746.995 1.25 2.146 1.855 3.239.141.273.262.566.464.995H12.77c-1.956 0-3.892-.04-5.849.02-.867.038-1.331-.274-1.694-1.015-.988-1.873-2.077-3.707-3.066-5.6-.161-.312-.222-.84-.06-1.132 1.069-2.03 2.239-4.039 3.348-6.088.262-.507.605-.683 1.19-.663 2.36.039 4.7.02 7.059.02h1.21c-1.049-1.874-2.017-3.59-3.045-5.445 2.46 0 4.74.118 7.018-.039 1.715-.117 2.582.469 3.41 1.913 3.347 5.775 6.857 11.473 10.306 17.19.1.215.201.449.403.839z"/></g><defs><clipPath id="a"><path fill="#fff" d="M2 7h31v20H2z"/></clipPath></defs></svg>