<svg xmlns="http://www.w3.org/2000/svg" width="30" height="30" fill="none"><path stroke="#DCFC36" stroke-linecap="round" stroke-linejoin="round" stroke-width="2" d="M9.22 6.074c1.6-1.55 3.526-2.324 5.78-2.324 2.254 0 4.172.766 5.753 2.298 1.581 1.531 2.372 3.389 2.372 5.572 0 1.091-.282 2.341-.845 3.75a22.837 22.837 0 0 1-2.045 3.961 78.62 78.62 0 0 1-2.372 3.46c-.782 1.073-1.445 1.927-1.99 2.561L15 26.25c-.218-.247-.509-.572-.873-.977-.363-.405-1.017-1.215-1.963-2.43a40.672 40.672 0 0 1-2.48-3.538c-.71-1.145-1.355-2.439-1.937-3.883-.581-1.443-.872-2.71-.872-3.802 0-2.183.782-4.032 2.345-5.546z" clip-rule="evenodd"/><path stroke="#DCFC36" stroke-linecap="round" stroke-linejoin="round" stroke-width="2" d="M16.25 11.875a1.25 1.25 0 1 1-2.5 0 1.25 1.25 0 0 1 2.5 0z"/></svg>