<svg xmlns="http://www.w3.org/2000/svg" width="135" height="45" fill="none"><g fill="#666" clip-path="url(#a)"><path d="m28.384 27.079-.54 9.845-.027.53a5.482 5.482 0 0 1-2.22-.83l-9.393-6.133a5.411 5.411 0 0 1-1.869-2.09 5.387 5.387 0 0 1-.577-2.737l.613-11.2a5.472 5.472 0 0 1 .647-2.283l8.697 5.68-.126 2.328a6.25 6.25 0 0 0 .666 3.187 6.27 6.27 0 0 0 2.178 2.429l1.951 1.272v.002zm11.553-8.615s-.459 8.347-.61 11.171c-.135.35-1.18 1.355-2.659 2.642l.524-13.396a3.744 3.744 0 0 0-1.656-3.27L24.422 8.102c1.916-.433 3.34-.677 3.7-.582 2.37 1.55 9.367 6.115 9.37 6.115a5.399 5.399 0 0 1 1.87 2.09 5.43 5.43 0 0 1 .575 2.74v-.002z"/><path d="m32.965 19.698-.632 16.16c-.454.365-.915.724-1.371 1.08a5.392 5.392 0 0 1-2.264.562l.91-16.586a.441.441 0 0 0-.2-.396L15.5 11.438a5.448 5.448 0 0 1 1.794-1.49c.554-.158 1.119-.314 1.68-.469l13.404 9.055c.386.26.608.697.588 1.162v.002z"/><path d="m36.31 18.846-.557 14.217a132.92 132.92 0 0 1-2.505 2.067l.602-15.398a2.214 2.214 0 0 0-.98-1.932L20.105 9.175c1.09-.29 2.16-.56 3.144-.795l11.792 7.966a2.86 2.86 0 0 1 1.268 2.502v-.002z"/></g><path fill="#666" d="M119.246 30.275v-5.422c0-.355-.024-.747-.073-1.178a4.046 4.046 0 0 0-.344-1.241 2.357 2.357 0 0 0-.792-.99c-.348-.258-.821-.386-1.418-.386-.32 0-.636.052-.949.156a2.176 2.176 0 0 0-.855.542c-.25.25-.452.598-.605 1.043-.153.438-.229 1-.229 1.689l-1.491-.636c0-.96.184-1.828.552-2.607a4.441 4.441 0 0 1 1.648-1.855c.723-.466 1.612-.7 2.669-.7.834 0 1.522.14 2.064.418.543.278.974.633 1.293 1.064.32.43.556.89.709 1.376.153.486.251.949.292 1.387.049.43.073.782.073 1.053v6.287h-2.544zm-7.809 0v-11.26h2.241v3.492h.303v7.768h-2.544zm-7.896.312c-1.126 0-2.11-.253-2.951-.76a5.228 5.228 0 0 1-1.96-2.096c-.459-.897-.688-1.926-.688-3.087 0-1.181.236-2.217.709-3.107a5.23 5.23 0 0 1 1.97-2.085c.841-.5 1.814-.75 2.92-.75 1.133 0 2.12.253 2.961.76a5.214 5.214 0 0 1 1.96 2.107c.466.89.698 1.915.698 3.076 0 1.167-.236 2.2-.709 3.096a5.223 5.223 0 0 1-1.96 2.096c-.841.5-1.824.75-2.95.75zm0-2.356c1.001 0 1.744-.334 2.231-1 .486-.668.73-1.53.73-2.587 0-1.09-.247-1.96-.741-2.606-.493-.654-1.233-.98-2.22-.98-.675 0-1.231.153-1.669.459-.431.298-.75.719-.959 1.261-.208.535-.313 1.158-.313 1.867 0 1.09.247 1.963.741 2.617.5.646 1.233.97 2.2.97zM87.24 30.275v-.344l5.965-8.717h-5.36v-2.2h9.27v.355l-5.944 8.706h5.693v2.2h-9.623zm-4.593-12.971V15h2.513v2.304h-2.513zm0 12.97v-11.26h2.513v11.26h-2.513zm-8.537.001v-11.26h2.22v2.741l-.27-.354a4.02 4.02 0 0 1 .552-1.022c.237-.313.518-.57.845-.772.278-.187.584-.333.917-.438a4.18 4.18 0 0 1 1.043-.198 4.241 4.241 0 0 1 1.032.042v2.346a3.225 3.225 0 0 0-1.157-.094c-.431.035-.82.157-1.168.365a2.625 2.625 0 0 0-.855.72 3.034 3.034 0 0 0-.48 1 4.388 4.388 0 0 0-.156 1.2v5.724H74.11zm-7.917.312c-1.126 0-2.11-.253-2.95-.76a5.228 5.228 0 0 1-1.96-2.096c-.46-.897-.689-1.926-.689-3.087 0-1.181.236-2.217.709-3.107a5.228 5.228 0 0 1 1.97-2.085c.842-.5 1.815-.75 2.92-.75 1.133 0 2.12.253 2.961.76a5.213 5.213 0 0 1 1.96 2.107c.466.89.699 1.915.699 3.076 0 1.167-.237 2.2-.71 3.096a5.228 5.228 0 0 1-1.96 2.096c-.84.5-1.824.75-2.95.75zm0-2.356c1 0 1.745-.334 2.231-1 .487-.668.73-1.53.73-2.587 0-1.09-.247-1.96-.74-2.606-.494-.654-1.234-.98-2.221-.98-.674 0-1.23.153-1.668.459-.431.298-.75.719-.96 1.261-.208.535-.312 1.158-.312 1.867 0 1.09.246 1.963.74 2.617.5.646 1.234.97 2.2.97zM46.17 30.275V15.26h2.513v6.318h7.111V15.26h2.502v15.014h-2.502v-6.34h-7.11v6.34H46.17z"/><defs><clipPath id="a"><path fill="#fff" d="M13.75 7.5h26.195v30H13.75z"/></clipPath></defs></svg>