<svg xmlns="http://www.w3.org/2000/svg" width="52" height="52" fill="none"><g clip-path="url(#a)"><rect width="52" height="52" fill="#141414" rx="8"/><path stroke="#DCFC36" stroke-opacity=".2" d="M6 55.034V-3m8 58.034V-3m8 58.034V-3m8 58.034V-3m8 58.034V-3m8 58.034V-3M-2.5 5.517h58.035m-58.035 8h58.035m-58.035 8h58.035m-58.035 8h58.035m-58.035 8h58.035m-58.035 8h58.035"/><path fill="url(#b)" d="M0 0h52v52H0z"/><g clip-path="url(#c)" filter="url(#d)"><path fill="#DCFC36" fill-rule="evenodd" d="M38 18.557a9.687 9.687 0 0 1-2.826.774 4.953 4.953 0 0 0 2.166-2.723 9.911 9.911 0 0 1-3.126 1.195 4.92 4.92 0 0 0-3.594-1.55 4.919 4.919 0 0 0-4.92 4.919c0 .383.042.759.126 1.12a13.978 13.978 0 0 1-10.146-5.145 4.937 4.937 0 0 0-.666 2.474c0 1.707.866 3.216 2.188 4.096a4.951 4.951 0 0 1-2.232-.613v.061a4.922 4.922 0 0 0 3.95 4.827 4.951 4.951 0 0 1-2.227.086 4.938 4.938 0 0 0 4.598 3.42A9.873 9.873 0 0 1 14 33.535a13.923 13.923 0 0 0 7.548 2.213c9.053 0 14.008-7.502 14.008-14.007 0-.216-.005-.426-.014-.638a9.87 9.87 0 0 0 2.455-2.544l.002-.002z" clip-rule="evenodd"/></g></g><rect width="51" height="51" x=".5" y=".5" stroke="#141414" rx="7.5"/><defs><clipPath id="a"><rect width="52" height="52" fill="#fff" rx="8"/></clipPath><clipPath id="c"><path fill="#fff" d="M14 14h24v24H14z"/></clipPath><radialGradient id="b" cx="0" cy="0" r="1" gradientTransform="matrix(0 26 -26 0 26 26)" gradientUnits="userSpaceOnUse"><stop stop-color="#0A0A0B" stop-opacity="0"/><stop offset=".949" stop-color="#0A0A0B"/></radialGradient><filter id="d" width="48" height="48" x="2" y="2" color-interpolation-filters="sRGB" filterUnits="userSpaceOnUse"><feFlood flood-opacity="0" result="BackgroundImageFix"/><feColorMatrix in="SourceAlpha" result="hardAlpha" values="0 0 0 0 0 0 0 0 0 0 0 0 0 0 0 0 0 0 127 0"/><feOffset/><feGaussianBlur stdDeviation="6"/><feComposite in2="hardAlpha" operator="out"/><feColorMatrix values="0 0 0 0 0.862745 0 0 0 0 0.988235 0 0 0 0 0.211765 0 0 0 0.3 0"/><feBlend in2="BackgroundImageFix" result="effect1_dropShadow_2309_135"/><feBlend in="SourceGraphic" in2="effect1_dropShadow_2309_135" result="shape"/></filter></defs></svg>