<svg xmlns="http://www.w3.org/2000/svg" width="25" height="24" fill="none"><path fill="#DCFC36" d="m16.908 19.2-3.939-3.938-1.202 1.202c-1.232 1.232-1.847 1.847-2.509 1.702-.662-.146-.962-.963-1.564-2.596l-2.008-5.45c-1.2-3.259-1.801-4.889-.961-5.729.84-.84 2.47-.24 5.729.962l5.449 2.007c1.634.602 2.45.903 2.596 1.565.145.662-.47 1.277-1.701 2.508l-1.203 1.203 3.938 3.938c.408.408.612.612.706.84.126.303.126.643 0 .947-.094.227-.298.431-.706.839s-.611.612-.839.706a1.238 1.238 0 0 1-.947 0c-.228-.094-.432-.298-.84-.706z"/></svg>