<svg xmlns="http://www.w3.org/2000/svg" width="45" height="44" fill="none"><g clip-path="url(#a)"><rect width="44.093" height="44" fill="#141414" rx="8"/><path stroke="#DCFC36" stroke-opacity=".2" d="M1.5 51.035V-7m8 58.035V-7m8 58.035V-7m8 58.035V-7m8 58.035V-7m8 58.035V-7M-7 1.517h58.035M-7 9.517h58.035m-58.035 8h58.035m-58.035 8h58.035m-58.035 8h58.035m-58.035 8h58.035"/><path fill="url(#b)" d="M0 0h44v44H0z"/><g filter="url(#c)"><g clip-path="url(#d)"><path fill="#DCFC36" d="M27.556 12h-11.02A4.537 4.537 0 0 0 12 16.537v10.926A4.537 4.537 0 0 0 16.537 32h11.019a4.537 4.537 0 0 0 4.537-4.537V16.537A4.537 4.537 0 0 0 27.556 12z"/><path fill="#050505" fill-rule="evenodd" d="M20.08 19.77h2.434v1.248h.035c.34-.608 1.169-1.248 2.405-1.248 2.57 0 3.046 1.6 3.046 3.68v4.401h-2.539v-3.919c0-.896-.019-2.049-1.32-2.049-1.322 0-1.525.975-1.525 1.984v3.984H20.08V19.77zm-1.44-2.45a1.32 1.32 0 1 1-2.64 0 1.32 1.32 0 0 1 2.64.001zM16 19.77h2.64v8.081H16V19.77z" clip-rule="evenodd"/></g></g></g><rect width="43.093" height="43" x=".5" y=".5" stroke="#141414" rx="7.5"/><defs><clipPath id="a"><rect width="44.093" height="44" fill="#fff" rx="8"/></clipPath><clipPath id="d"><rect width="20.093" height="20" x="12" y="12" fill="#fff" rx="10"/></clipPath><radialGradient id="b" cx="0" cy="0" r="1" gradientTransform="matrix(0 22 -22 0 22 22)" gradientUnits="userSpaceOnUse"><stop stop-color="#0A0A0B" stop-opacity="0"/><stop offset=".949" stop-color="#0A0A0B"/></radialGradient><filter id="c" width="44.093" height="44" x="0" y="0" color-interpolation-filters="sRGB" filterUnits="userSpaceOnUse"><feFlood flood-opacity="0" result="BackgroundImageFix"/><feColorMatrix in="SourceAlpha" result="hardAlpha" values="0 0 0 0 0 0 0 0 0 0 0 0 0 0 0 0 0 0 127 0"/><feOffset/><feGaussianBlur stdDeviation="6"/><feComposite in2="hardAlpha" operator="out"/><feColorMatrix values="0 0 0 0 0.862745 0 0 0 0 0.988235 0 0 0 0 0.211765 0 0 0 0.3 0"/><feBlend in2="BackgroundImageFix" result="effect1_dropShadow_2281_1988"/><feBlend in="SourceGraphic" in2="effect1_dropShadow_2281_1988" result="shape"/></filter></defs></svg>