<svg xmlns="http://www.w3.org/2000/svg" width="52" height="52" fill="none"><g clip-path="url(#a)"><rect width="52" height="52" fill="#141414" rx="8"/><path stroke="#DCFC36" stroke-opacity=".2" d="M5.75 55.034V-3m8 58.034V-3m8 58.034V-3m8 58.034V-3m8 58.034V-3m8 58.034V-3m-48.5 8.517h58.035m-58.035 8h58.035m-58.035 8h58.035m-58.035 8h58.035m-58.035 8h58.035m-58.035 8h58.035"/><path fill="url(#b)" d="M0 0h52v52H0z"/><g clip-path="url(#c)" filter="url(#d)"><path fill="#DCFC36" d="M38 26c0-6.628-5.372-12-12-12s-12 5.372-12 12c0 5.628 3.874 10.35 9.101 11.647v-7.98h-2.474V26H23.1v-1.58c0-4.085 1.849-5.978 5.858-5.978.76 0 2.073.15 2.61.299v3.324c-.284-.03-.776-.045-1.387-.045-1.968 0-2.728.745-2.728 2.683V26h3.92l-.674 3.667h-3.246v8.245C33.396 37.195 38 32.135 38 26z"/><path fill="#050505" d="M30.7 29.667 31.373 26h-3.92v-1.297c0-1.938.761-2.683 2.729-2.683.61 0 1.103.015 1.386.045V18.74c-.537-.15-1.848-.299-2.609-.299-4.01 0-5.858 1.894-5.858 5.978V26h-2.474v3.667H23.1v7.98a12.037 12.037 0 0 0 4.353.265v-8.245H30.7z"/></g></g><rect width="51" height="51" x=".5" y=".5" stroke="#141414" rx="7.5"/><defs><clipPath id="a"><rect width="52" height="52" fill="#fff" rx="8"/></clipPath><clipPath id="c"><path fill="#fff" d="M14 14h24v24H14z"/></clipPath><radialGradient id="b" cx="0" cy="0" r="1" gradientTransform="matrix(0 26 -26 0 26 26)" gradientUnits="userSpaceOnUse"><stop stop-color="#0A0A0B" stop-opacity="0"/><stop offset=".949" stop-color="#0A0A0B"/></radialGradient><filter id="d" width="48" height="48" x="2" y="2" color-interpolation-filters="sRGB" filterUnits="userSpaceOnUse"><feFlood flood-opacity="0" result="BackgroundImageFix"/><feColorMatrix in="SourceAlpha" result="hardAlpha" values="0 0 0 0 0 0 0 0 0 0 0 0 0 0 0 0 0 0 127 0"/><feOffset/><feGaussianBlur stdDeviation="6"/><feComposite in2="hardAlpha" operator="out"/><feColorMatrix values="0 0 0 0 0.862745 0 0 0 0 0.988235 0 0 0 0 0.211765 0 0 0 0.3 0"/><feBlend in2="BackgroundImageFix" result="effect1_dropShadow_2309_158"/><feBlend in="SourceGraphic" in2="effect1_dropShadow_2309_158" result="shape"/></filter></defs></svg>