<svg xmlns="http://www.w3.org/2000/svg" width="135" height="45" fill="none"><g clip-path="url(#a)"><path fill="#666" d="M41.377 16.126a6.169 6.169 0 0 0-4.137 1.594 6.173 6.173 0 0 1-9.922.752c-.005.005-.01.01-.016.021a6.165 6.165 0 0 0-4.857-2.361 6.191 6.191 0 0 0-6.19 6.19 6.191 6.191 0 0 0 6.19 6.19 6.16 6.16 0 0 0 4.703-2.176c.026.037.053.075.085.112a6.187 6.187 0 0 1 9.549.005 6.17 6.17 0 0 0 4.595 2.058 6.191 6.191 0 0 0 6.19-6.19 6.191 6.191 0 0 0-6.19-6.19v-.005z"/><path fill="#999" d="M31.908 16.5a4.5 4.5 0 1 0 0-9 4.5 4.5 0 0 0 0 9z"/><path fill="gray" d="M31.908 37.5a4.5 4.5 0 1 0 0-9 4.5 4.5 0 0 0 0 9z"/></g><path fill="#666" d="M112.241 30.313v-11.25h2.219v2.74l-.271-.355c.139-.375.323-.715.552-1.02.236-.313.518-.57.844-.772a3.48 3.48 0 0 1 .917-.437 4.12 4.12 0 0 1 1.041-.198 4.251 4.251 0 0 1 1.032.041v2.344a3.224 3.224 0 0 0-1.157-.093c-.43.034-.819.156-1.166.364a2.626 2.626 0 0 0-.855.719 3.036 3.036 0 0 0-.479 1 4.392 4.392 0 0 0-.156 1.198v5.718h-2.521zm-8.858.312c-.812 0-1.5-.153-2.062-.458-.563-.313-.99-.726-1.281-1.24a3.441 3.441 0 0 1-.428-1.698c0-.541.09-1.028.271-1.458.181-.438.459-.813.834-1.125.375-.32.861-.58 1.458-.781.451-.146.979-.278 1.583-.396a36.913 36.913 0 0 1 1.98-.323c.715-.104 1.461-.215 2.239-.334l-.896.51c.007-.777-.166-1.35-.521-1.718-.354-.368-.951-.552-1.791-.552-.507 0-.997.118-1.469.354-.472.236-.802.643-.99 1.219l-2.291-.719a4.258 4.258 0 0 1 1.583-2.291c.785-.577 1.84-.865 3.167-.865 1 0 1.878.163 2.635.49.764.326 1.33.86 1.698 1.604.202.396.323.802.365 1.218.041.41.062.858.062 1.344v6.907h-2.198v-2.438l.365.396c-.507.812-1.101 1.41-1.781 1.791-.674.375-1.518.563-2.532.563zm.5-2c.57 0 1.056-.1 1.459-.302a2.85 2.85 0 0 0 .958-.74c.243-.291.406-.566.49-.823.132-.319.204-.684.218-1.093.021-.417.032-.754.032-1.01l.77.228c-.756.118-1.406.223-1.947.313-.542.09-1.007.177-1.396.26a8.907 8.907 0 0 0-1.032.26 3.189 3.189 0 0 0-.739.365 1.606 1.606 0 0 0-.469.48c-.104.18-.156.392-.156.635 0 .278.069.524.208.74.139.208.34.375.604.5.271.125.605.187 1 .187zm-9.276 1.688V15h2.51v15.313h-2.51zm-5.839 0V15h2.51v15.313h-2.51zm-7.626.312c-1.14 0-2.14-.247-3-.74a5.267 5.267 0 0 1-2.021-2.052c-.48-.875-.719-1.882-.719-3.02 0-1.23.236-2.296.708-3.198.473-.91 1.129-1.615 1.97-2.115.84-.5 1.812-.75 2.916-.75 1.166 0 2.156.274 2.969.823.819.542 1.427 1.309 1.822 2.302.396.993.546 2.163.448 3.51h-2.49v-.916c-.006-1.223-.221-2.115-.645-2.677-.424-.563-1.09-.844-2-.844-1.028 0-1.792.32-2.292.958-.5.632-.75 1.56-.75 2.782 0 1.138.25 2.02.75 2.645s1.23.938 2.188.938c.618 0 1.15-.136 1.594-.406a2.711 2.711 0 0 0 1.041-1.198l2.48.75c-.431 1.014-1.098 1.802-2 2.364a5.471 5.471 0 0 1-2.97.844zm-3.875-5.24V23.49h7.74v1.895h-7.74zm-3.09 4.928c-.743.138-1.472.197-2.187.177-.708-.014-1.344-.143-1.906-.386a2.642 2.642 0 0 1-1.282-1.177 3.355 3.355 0 0 1-.406-1.49 63.13 63.13 0 0 1-.02-1.718v-9.782h2.5v9.636c0 .451.003.847.01 1.187.014.34.087.618.219.834.25.416.649.65 1.197.698.55.048 1.174.02 1.875-.084v2.105zm-7.843-9.282v-1.968h7.843v1.968h-7.843zm-6.89 9.594c-1.098 0-2.087-.191-2.97-.573a5.607 5.607 0 0 1-2.166-1.635c-.562-.716-.92-1.563-1.073-2.542l2.605-.396c.222.89.677 1.577 1.364 2.063.694.486 1.493.729 2.396.729.535 0 1.038-.084 1.51-.25.473-.167.855-.41 1.146-.73a1.66 1.66 0 0 0 .448-1.176c0-.209-.035-.4-.104-.573a1.39 1.39 0 0 0-.313-.48 1.932 1.932 0 0 0-.52-.375 3.549 3.549 0 0 0-.73-.302l-3.875-1.145a10.932 10.932 0 0 1-1.083-.386 4.671 4.671 0 0 1-1.094-.677 3.482 3.482 0 0 1-.843-1.104c-.216-.451-.323-1.007-.323-1.667 0-.965.243-1.774.729-2.427.493-.66 1.153-1.153 1.979-1.479.833-.326 1.757-.486 2.77-.48 1.029.008 1.945.185 2.75.532.806.34 1.48.837 2.022 1.49.541.652.923 1.44 1.145 2.364l-2.697.469a2.93 2.93 0 0 0-.646-1.344 3.013 3.013 0 0 0-1.157-.854 3.892 3.892 0 0 0-2.843-.083 2.507 2.507 0 0 0-1.032.666 1.497 1.497 0 0 0-.385 1.021c0 .368.111.67.333.907a2.5 2.5 0 0 0 .823.552c.334.132.67.243 1.01.333l2.688.75c.368.097.782.23 1.24.396.458.166.9.4 1.323.698.423.298.77.69 1.041 1.177.278.486.417 1.104.417 1.854 0 .778-.163 1.462-.49 2.052a4.296 4.296 0 0 1-1.302 1.458 5.952 5.952 0 0 1-1.885.875 8.227 8.227 0 0 1-2.208.292z"/><defs><clipPath id="a"><path fill="#fff" d="M16.25 7.5h31.311v30H16.25z"/></clipPath></defs></svg>