<svg xmlns="http://www.w3.org/2000/svg" width="34" height="34" fill="none"><g fill="#DCFC36" clip-path="url(#a)"><path d="m18.017 11.381 6.802 6.593c2.102 2.037 1.785 4.885-.678 6.177-1.537.789-3.254.46-4.723-.942-2.463-2.387-4.904-4.775-7.345-7.14-1.92-1.862-3.819-3.724-5.74-5.564-1.265-1.227-1.65-2.738-1.017-4.184.678-1.533 1.921-2.3 3.639-2.3 5.378 0 10.757-.021 16.135 0C27.35 4.043 29 5.642 29 7.723s-1.673 3.636-3.933 3.658h-7.05zm-5.424 11.566c0 1.16.023 2.322 0 3.504-.068 1.994-1.65 3.505-3.684 3.549-2.056.044-3.819-1.512-3.864-3.505-.068-2.41-.068-4.819 0-7.206.045-2.06 1.83-3.614 3.932-3.549 2.034.066 3.593 1.643 3.616 3.724.023 1.139 0 2.3 0 3.483z"/></g><defs><clipPath id="a"><path fill="#fff" d="M5 4h24v26H5z"/></clipPath></defs></svg>