<svg xmlns="http://www.w3.org/2000/svg" width="34" height="34" fill="none"><g clip-path="url(#a)"><g fill="#DCFC36" clip-path="url(#b)"><path d="M14.66 10.473a.918.918 0 0 1 .74 1.412l-3.706 5.81a.92.92 0 0 0 .086 1.105l6.841 7.722c.525.592.106 1.527-.683 1.527H8.384a.914.914 0 0 1-.738-.374l-5.015-6.85a.914.914 0 0 0-.737-.374h-.522a.918.918 0 0 1-.74-1.458l6.076-8.382a.914.914 0 0 1 .77-.378l7.181.24z"/><path d="M18.49 22.676a.918.918 0 0 1-.74-1.412l3.706-5.81a.92.92 0 0 0-.087-1.104l-6.84-7.722c-.525-.593-.106-1.528.683-1.528h9.554c.292 0 .565.139.738.374l5.015 6.85a.914.914 0 0 0 .737.374h.522c.748 0 1.18.851.74 1.458l-6.076 8.383a.914.914 0 0 1-.77.377l-7.181-.24z"/></g></g><defs><clipPath id="a"><path fill="#fff" d="M0 0h34v34H0z"/></clipPath><clipPath id="b"><path fill="#fff" d="M-.425 5.1h34v22.95h-34z"/></clipPath></defs></svg>