<svg xmlns="http://www.w3.org/2000/svg" width="135" height="45" fill="none"><g clip-path="url(#a)"><path fill="#666" d="M13.75 32.14v5.36l18.343-8.198v-5.36L13.75 32.14z"/><path fill="gray" d="M13.75 12.86V7.5l18.343 8.198v5.36L13.75 12.86z"/><path fill="#999" d="M13.75 21.061v-5.36l18.343 8.198v5.363l-18.343-8.2z"/></g><path fill="#666" d="m112.824 33.243 2.215-6.08.042 1.789-5.015-12.32h2.673l3.556 9.115h-.681l3.461-9.115h2.566l-6.41 16.611h-2.407zm-9.801.32a5.72 5.72 0 0 1-1.842-.299 5.162 5.162 0 0 1-1.576-.862 4.549 4.549 0 0 1-1.15-1.342l2.364-1.171c.22.419.529.727.926.926.405.206.835.309 1.289.309.532 0 1.008-.096 1.427-.287.419-.185.742-.462.969-.831.234-.362.344-.816.33-1.363v-3.27h.319v-8.741h2.247v12.053c0 .292-.014.569-.042.831a5.77 5.77 0 0 1-.118.788c-.17.745-.497 1.356-.979 1.832-.483.482-1.083.84-1.8 1.075-.71.234-1.498.352-2.364.352zm-.223-5.112c-1.058 0-1.981-.266-2.769-.798-.788-.533-1.398-1.257-1.831-2.173-.433-.915-.65-1.948-.65-3.098 0-1.164.217-2.2.65-3.11.44-.915 1.06-1.636 1.863-2.161.802-.533 1.746-.799 2.832-.799 1.094 0 2.009.266 2.748.799.745.525 1.309 1.246 1.693 2.162.383.915.575 1.952.575 3.109 0 1.143-.192 2.176-.575 3.098-.384.916-.955 1.64-1.715 2.173-.759.532-1.7.798-2.821.798zm.394-2.3c.688 0 1.242-.156 1.661-.468.426-.32.734-.763.926-1.331.199-.568.298-1.225.298-1.97 0-.753-.099-1.41-.298-1.97-.192-.568-.493-1.008-.905-1.32-.412-.32-.944-.48-1.597-.48-.689 0-1.257.17-1.704.511-.447.334-.777.788-.99 1.363-.213.568-.32 1.2-.32 1.896 0 .703.103 1.341.309 1.916.213.568.536 1.02.969 1.353.433.333.983.5 1.651.5zm-13.095 1.981v-11.5h2.268v2.8l-.277-.362c.142-.383.33-.731.564-1.043.242-.32.53-.582.863-.788.284-.192.596-.341.937-.448a4.213 4.213 0 0 1 1.065-.202 4.34 4.34 0 0 1 1.054.043v2.396c-.341-.1-.735-.132-1.182-.096-.44.035-.838.16-1.193.373a2.679 2.679 0 0 0-.873.734 3.1 3.1 0 0 0-.49 1.022c-.106.377-.16.785-.16 1.225v5.846H90.1zm-7.583.319c-1.164 0-2.187-.252-3.067-.756a5.384 5.384 0 0 1-2.066-2.098c-.49-.894-.734-1.923-.734-3.088 0-1.256.241-2.346.724-3.268.483-.93 1.153-1.651 2.012-2.162.86-.511 1.853-.767 2.982-.767 1.192 0 2.204.28 3.035.841.837.554 1.458 1.339 1.863 2.354.405 1.015.557 2.211.458 3.588h-2.545v-.937c-.007-1.25-.227-2.161-.66-2.736-.433-.576-1.115-.863-2.045-.863-1.05 0-1.831.327-2.342.98-.511.646-.767 1.593-.767 2.843 0 1.164.256 2.066.767 2.704.51.64 1.256.959 2.236.959.632 0 1.175-.139 1.629-.416a2.77 2.77 0 0 0 1.065-1.224l2.534.767c-.44 1.036-1.121 1.842-2.044 2.417a5.593 5.593 0 0 1-3.035.862zm-3.961-5.356v-1.938h7.911v1.938h-7.911zm-6.457 5.037v-5.537c0-.362-.025-.763-.075-1.203a4.158 4.158 0 0 0-.351-1.268 2.401 2.401 0 0 0-.81-1.011c-.354-.263-.837-.394-1.447-.394-.327 0-.65.053-.97.16-.319.106-.61.29-.873.553-.255.256-.461.61-.617 1.065-.156.447-.234 1.022-.234 1.725l-1.523-.65c0-.98.188-1.866.564-2.662a4.53 4.53 0 0 1 1.683-1.895c.738-.476 1.647-.713 2.726-.713.851 0 1.554.142 2.108.426.554.284.994.646 1.32 1.086.327.44.568.908.724 1.405.157.497.256.97.299 1.416.05.44.074.8.074 1.076v6.42h-2.598zm-7.976 0v-11.5h2.29v3.567h.308v7.933h-2.598zm-10.383 5.111 2.215-6.08.042 1.789-5.015-12.32h2.672l3.557 9.115h-.681l3.46-9.115h2.566l-6.41 16.611H53.74zm-9.625-4.792c-1.122 0-2.134-.195-3.035-.585a5.732 5.732 0 0 1-2.215-1.672c-.575-.731-.94-1.597-1.097-2.598l2.662-.405c.227.909.692 1.611 1.395 2.108.71.497 1.526.746 2.45.746.546 0 1.06-.085 1.543-.256.483-.17.873-.419 1.172-.745.305-.327.457-.728.457-1.203 0-.213-.035-.409-.106-.586a1.392 1.392 0 0 0-.32-.49 1.975 1.975 0 0 0-.532-.383 3.619 3.619 0 0 0-.745-.309l-3.962-1.171c-.34-.1-.71-.231-1.107-.394a4.773 4.773 0 0 1-1.118-.692 3.562 3.562 0 0 1-.862-1.13c-.22-.46-.33-1.029-.33-1.703 0-.987.248-1.814.745-2.48.504-.675 1.178-1.18 2.023-1.513.852-.334 1.796-.497 2.832-.49 1.051.007 1.988.188 2.812.543a5.34 5.34 0 0 1 2.065 1.523c.554.667.944 1.473 1.172 2.417l-2.758.48a2.994 2.994 0 0 0-.66-1.374 3.081 3.081 0 0 0-1.182-.873 3.978 3.978 0 0 0-2.907-.086 2.563 2.563 0 0 0-1.055.682 1.53 1.53 0 0 0-.394 1.043c0 .377.114.685.341.927.227.234.508.422.841.564.341.135.685.249 1.033.34l2.748.767c.376.1.798.235 1.267.405.468.17.919.408 1.352.714a3.57 3.57 0 0 1 1.065 1.203c.284.497.426 1.129.426 1.895 0 .795-.167 1.495-.5 2.098a4.393 4.393 0 0 1-1.332 1.49 6.086 6.086 0 0 1-1.927.895 8.415 8.415 0 0 1-2.258.298z"/><defs><clipPath id="a"><path fill="#fff" d="M13.75 7.5h18.343v30H13.75z"/></clipPath></defs></svg>