<svg xmlns="http://www.w3.org/2000/svg" width="169" height="34" fill="none"><path fill="#DCFC36" d="M161.499 24.892c-1.374 0-2.58-.278-3.619-.833a6.146 6.146 0 0 1-2.438-2.31c-.578-.986-.867-2.12-.867-3.402 0-1.384.285-2.585.854-3.601a6.015 6.015 0 0 1 2.375-2.381c1.014-.563 2.187-.845 3.519-.845 1.408 0 2.601.31 3.582.927.988.61 1.721 1.474 2.199 2.592.477 1.118.658 2.436.54 3.953h-3.003V17.96c-.009-1.377-.268-2.381-.779-3.015-.511-.633-1.316-.95-2.413-.95-1.24 0-2.162.36-2.765 1.08-.603.71-.905 1.755-.905 3.131 0 1.282.302 2.275.905 2.98.603.703 1.483 1.055 2.639 1.055.746 0 1.387-.153 1.923-.458a3.135 3.135 0 0 0 1.257-1.349l2.99.845a5.777 5.777 0 0 1-2.412 2.663c-1.081.633-2.275.95-3.582.95zm-4.675-5.9v-2.135h9.337v2.135h-9.337zm-10.444 5.9c-1.374 0-2.581-.278-3.62-.833a6.15 6.15 0 0 1-2.437-2.31c-.579-.986-.868-2.12-.868-3.402 0-1.384.285-2.585.855-3.601a6.009 6.009 0 0 1 2.375-2.381c1.014-.563 2.187-.845 3.519-.845 1.407 0 2.601.31 3.581.927.989.61 1.722 1.474 2.199 2.592.478 1.118.658 2.436.541 3.953h-3.004V17.96c-.008-1.377-.268-2.381-.779-3.015-.511-.633-1.315-.95-2.413-.95-1.239 0-2.161.36-2.764 1.08-.603.71-.905 1.755-.905 3.131 0 1.282.302 2.275.905 2.98.603.703 1.483 1.055 2.639 1.055.745 0 1.386-.153 1.922-.458a3.123 3.123 0 0 0 1.257-1.349l2.991.845a5.78 5.78 0 0 1-2.413 2.663c-1.081.633-2.274.95-3.581.95zm-4.675-5.9v-2.135h9.337v2.135h-9.337zm-11.289 5.548V11.873h2.677v3.085l-.327-.399c.168-.422.39-.805.666-1.15a3.625 3.625 0 0 1 1.018-.867 4.343 4.343 0 0 1 1.106-.493c.411-.125.829-.2 1.257-.223a5.467 5.467 0 0 1 1.244.047v2.64c-.402-.11-.867-.146-1.395-.106a3.36 3.36 0 0 0-1.408.41 3.118 3.118 0 0 0-1.03.81c-.26.328-.452.703-.578 1.125a4.618 4.618 0 0 0-.189 1.35v6.438h-3.041zm-13.156 0V7.65h10.896v2.827h-7.867v4.21h6.359v2.816h-6.359v7.037h-3.029zm-10.07.352c-1.249 0-2.338-.293-3.268-.88a5.945 5.945 0 0 1-2.161-2.392c-.511-1.01-.767-2.147-.767-3.414 0-1.282.256-2.423.767-3.424a5.89 5.89 0 0 1 2.199-2.381c.947-.587 2.061-.88 3.343-.88 1.29 0 2.371.293 3.242.88.88.578 1.546 1.372 1.998 2.38.453 1.01.679 2.15.679 3.425 0 1.26-.226 2.397-.679 3.414a5.465 5.465 0 0 1-2.023 2.392c-.896.587-2.007.88-3.33.88zm.465-2.534c.812 0 1.466-.172 1.96-.516.503-.351.867-.84 1.093-1.466.235-.625.352-1.349.352-2.17 0-.828-.117-1.552-.352-2.17-.226-.625-.582-1.11-1.068-1.454-.486-.352-1.114-.528-1.885-.528-.812 0-1.483.188-2.01.563a3.23 3.23 0 0 0-1.169 1.502c-.251.625-.377 1.321-.377 2.087 0 .775.121 1.478.364 2.112a3.31 3.31 0 0 0 1.144 1.49c.511.367 1.16.55 1.948.55zm3.405 2.182v-8.89h-.377v-8h3.054v16.89h-2.677zm-15.436 0v-6.1c0-.398-.03-.84-.088-1.325a4.346 4.346 0 0 0-.415-1.395 2.688 2.688 0 0 0-.955-1.115c-.419-.29-.989-.434-1.71-.434-.385 0-.766.059-1.143.176-.377.117-.72.32-1.03.61-.302.282-.545.673-.73 1.173-.183.493-.275 1.126-.275 1.9l-1.798-.715c0-1.08.222-2.057.666-2.933a5.121 5.121 0 0 1 1.986-2.087c.871-.524 1.944-.786 3.217-.786 1.005 0 1.835.156 2.488.469.654.313 1.173.712 1.559 1.196.385.485.67 1.001.854 1.549.184.547.302 1.067.352 1.56.059.484.088.88.088 1.184v7.073h-3.066zm-9.413 0V11.872h2.702v3.93h.365v8.738H86.21zm-10.661.352c-.98 0-1.81-.172-2.488-.517-.678-.351-1.194-.817-1.546-1.395a3.676 3.676 0 0 1-.515-1.912c0-.61.11-1.157.327-1.642a3.264 3.264 0 0 1 1.005-1.267c.453-.36 1.04-.653 1.76-.88a17.661 17.661 0 0 1 1.91-.445 47.599 47.599 0 0 1 2.388-.364c.862-.117 1.763-.242 2.701-.375l-1.08.575c.008-.876-.201-1.521-.629-1.936-.427-.414-1.147-.621-2.161-.621-.612 0-1.203.133-1.772.398-.57.266-.968.724-1.194 1.373l-2.765-.81a4.806 4.806 0 0 1 1.91-2.58c.947-.649 2.22-.973 3.82-.973 1.207 0 2.267.183 3.18.55.922.368 1.605.97 2.049 1.807.242.446.39.903.44 1.372.05.462.075.966.075 1.513v7.777h-2.652v-2.745l.44.446c-.612.915-1.328 1.587-2.149 2.017-.813.422-1.83.634-3.054.634zm.604-2.252c.687 0 1.273-.114 1.759-.34.486-.227.871-.505 1.156-.833.293-.329.49-.638.59-.927.16-.36.248-.77.265-1.232.025-.469.037-.848.037-1.137l.93.258c-.913.133-1.696.25-2.35.352-.653.101-1.215.2-1.684.293-.469.086-.883.184-1.244.293-.352.117-.65.254-.892.41a1.882 1.882 0 0 0-.566.54 1.333 1.333 0 0 0-.188.716c0 .313.084.59.251.832.168.235.41.423.73.563.326.141.728.212 1.206.212zm-17.549 1.9V7.65h3.029v14.24h7.992v2.65h-11.02z"/><g fill="#DCFC36" clip-path="url(#a)"><path d="M22.123 7.961c1.04.035 1.647 1.204 1.086 2.092l-5.435 8.607a1.374 1.374 0 0 0 .128 1.637l10.033 11.44c.77.877.155 2.263-1.003 2.263H12.919c-.427 0-.828-.206-1.081-.555L4.482 23.298a1.336 1.336 0 0 0-1.081-.555h-.766c-1.097 0-1.73-1.26-1.085-2.16l8.91-12.417a1.336 1.336 0 0 1 1.13-.56l10.533.356z"/><path d="M27.743 26.04c-1.04-.036-1.646-1.205-1.085-2.093l5.434-8.607a1.374 1.374 0 0 0-.127-1.636L21.932 2.264C21.162 1.386 21.777 0 22.935 0h14.012c.427 0 .829.206 1.082.555l7.355 10.147c.253.349.655.555 1.082.555h.766c1.096 0 1.73 1.26 1.085 2.16l-8.912 12.419a1.336 1.336 0 0 1-1.13.559l-10.532-.356z"/></g><defs><clipPath id="a"><path fill="#fff" d="M0 0h49.867v34H0z"/></clipPath></defs></svg>