<svg xmlns="http://www.w3.org/2000/svg" width="28" height="28" fill="none"><path fill="#DCFC36" fill-rule="evenodd" d="M10.69 4.404a.875.875 0 0 1-.572 1.097 9.875 9.875 0 0 0-6.91 9.42c0 5.45 4.42 9.87 9.871 9.87 4.419 0 8.162-2.904 9.42-6.91a.875.875 0 1 1 1.67.525c-1.481 4.714-5.885 8.135-11.09 8.135-6.418 0-11.62-5.203-11.62-11.62 0-5.206 3.42-9.609 8.134-11.09a.875.875 0 0 1 1.097.573z" clip-rule="evenodd"/><path fill="#DCFC36" d="M25.565 11.605a13.244 13.244 0 0 0-9.17-9.17c-1.918-.536-3.562 1.128-3.562 3.119v7.81c0 .995.807 1.802 1.803 1.802h7.81c1.99 0 3.655-1.644 3.12-3.561z"/></svg>