<svg xmlns="http://www.w3.org/2000/svg" width="34" height="34" fill="none"><g fill="#DCFC36" clip-path="url(#a)"><path d="M22.01 30V11.99H4V4h17.93C26.497 4 30 7.504 30 12.058V30h-7.99z"/><path d="M19.83 22.01a2.73 2.73 0 0 1-.821 1.998c-1.666 1.666-3.321 3.344-5 4.999-1.209 1.187-2.864 1.153-4.062-.034a999.772 999.772 0 0 1-4.92-4.92c-1.152-1.164-1.175-2.864-.022-4.029a507.212 507.212 0 0 1 4.953-4.953c1.198-1.187 2.876-1.187 4.075 0 1.632 1.62 3.253 3.253 4.873 4.874.582.57.925 1.244.925 2.065z"/></g><defs><clipPath id="a"><path fill="#fff" d="M4 4h26v26H4z"/></clipPath></defs></svg>